<svg xmlns="http://www.w3.org/2000/svg" viewBox="0 0 64 64" role="img" aria-labelledby="title desc">
  <title id="title">Factory AI</title>
  <desc id="desc">Factory AI User Factory mark</desc>
  <defs>
    <linearGradient id="mark-bg" x1="8" y1="4" x2="58" y2="62" gradientUnits="userSpaceOnUse">
      <stop stop-color="#102a43"/>
      <stop offset="1" stop-color="#071421"/>
    </linearGradient>
    <linearGradient id="mark-accent" x1="18" y1="18" x2="49" y2="49" gradientUnits="userSpaceOnUse">
      <stop stop-color="#5eead4"/>
      <stop offset="1" stop-color="#14b8a6"/>
    </linearGradient>
  </defs>
  <rect x="2" y="2" width="60" height="60" rx="18" fill="url(#mark-bg)"/>
  <path d="M16 47V30l10-6v6l9-6v23H16Z" fill="url(#mark-accent)"/>
  <path d="M35 47V20l8-5v9l7-4v27H35Z" fill="#f59e0b"/>
  <path d="M22 35h4v4h-4zm0 7h4v4h-4zm10-4h4v4h-4z" fill="#071421" opacity=".8"/>
  <path d="M14 50h38" stroke="#e2e8f0" stroke-linecap="round" stroke-width="3"/>
  <circle cx="49" cy="13" r="3" fill="#5eead4"/>
  <path d="m49 7 1.3 4.7L55 13l-4.7 1.3L49 19l-1.3-4.7L43 13l4.7-1.3L49 7Z" fill="#fbbf24"/>
</svg>
